HIERARCHY
ROOT Hips
{
 OFFSET 0.000000 0.000000 0.000000
 CHANNELS 6 Xposition Yposition Zposition Yrotation Xrotation Zrotation
 JOINT Chest
 {
  OFFSET 0.000000 9.585900 0.002600
  CHANNELS 3 Yrotation Xrotation Zrotation
  JOINT Chest2
  {
   OFFSET 0.000000 9.601200 -0.005300
   CHANNELS 3 Yrotation Xrotation Zrotation
   JOINT Chest3
   {
    OFFSET 0.000000 9.561800 0.000000
    CHANNELS 3 Yrotation Xrotation Zrotation
    JOINT Chest4
    {
     OFFSET 0.000000 9.552100 0.000000
     CHANNELS 3 Yrotation Xrotation Zrotation
     JOINT Neck
     {
      OFFSET 0.000000 14.453000 0.000000
      CHANNELS 3 Yrotation Xrotation Zrotation
      JOINT Head
      {
       OFFSET 0.000000 8.936500 -0.011300
       CHANNELS 3 Yrotation Xrotation Zrotation
       End Site
       {
        OFFSET 0.000000 17.073600 -0.006000
       }
      }
     }
     JOINT RightCollar
     {
      OFFSET -2.921100 9.558500 0.000000
      CHANNELS 3 Yrotation Xrotation Zrotation
      JOINT RightShoulder
      {
       OFFSET -13.519700 0.000000 0.000000
       CHANNELS 3 Yrotation Xrotation Zrotation
       JOINT RightElbow
       {
        OFFSET 0.000000 -29.696600 0.000000
        CHANNELS 3 Yrotation Xrotation Zrotation
        JOINT RightWrist
        {
         OFFSET 0.000000 -24.004700 0.000000
         CHANNELS 3 Yrotation Xrotation Zrotation
         End Site
         {
          OFFSET 0.000000 -17.728500 0.000000
         }
        }
       }
      }
     }
     JOINT LeftCollar
     {
      OFFSET 2.921100 9.558500 0.000000
      CHANNELS 3 Yrotation Xrotation Zrotation
      JOINT LeftShoulder
      {
       OFFSET 13.519700 0.000000 0.000000
       CHANNELS 3 Yrotation Xrotation Zrotation
       JOINT LeftElbow
       {
        OFFSET 0.000000 -29.696600 0.000000
        CHANNELS 3 Yrotation Xrotation Zrotation
        JOINT LeftWrist
        {
         OFFSET 0.000000 -24.004700 0.000000
         CHANNELS 3 Yrotation Xrotation Zrotation
         End Site
         {
          OFFSET 0.000000 -17.728500 0.000000
         }
        }
       }
      }
     }
    }
   }
  }
 }
 JOINT RightHip
 {
  OFFSET -7.771700 -0.012900 -0.001300
  CHANNELS 3 Yrotation Xrotation Zrotation
  JOINT RightKnee
  {
   OFFSET 0.000000 -40.869800 0.001200
   CHANNELS 3 Yrotation Xrotation Zrotation
   JOINT RightAnkle
   {
    OFFSET 0.000000 -39.717900 0.002100
    CHANNELS 3 Yrotation Xrotation Zrotation
    JOINT RightToe
    {
     OFFSET 0.000000 -4.965400 11.033500
     CHANNELS 3 Yrotation Xrotation Zrotation
     End Site
     {
      OFFSET 0.000000 -1.423100 5.872300
     }
    }
   }
  }
 }
 JOINT LeftHip
 {
  OFFSET 7.771700 -0.012900 -0.001300
  CHANNELS 3 Yrotation Xrotation Zrotation
  JOINT LeftKnee
  {
   OFFSET 0.000000 -40.869800 0.001200
   CHANNELS 3 Yrotation Xrotation Zrotation
   JOINT LeftAnkle
   {
    OFFSET 0.000000 -39.717900 0.002100
    CHANNELS 3 Yrotation Xrotation Zrotation
    JOINT LeftToe
    {
     OFFSET 0.000000 -4.965400 11.033500
     CHANNELS 3 Yrotation Xrotation Zrotation
     End Site
     {
      OFFSET 0.000000 -1.423100 5.872300
     }
    }
   }
  }
 }
}
MOTION
Frames: 7
Frame Time: 0.008333
0.000000 85.388000 0.000000 0.000000 -5.767877 0.000000 0.000000 11.653817 0.000000 0.000000 -5.885947 0.000000 0.000000 -0.000000 0.000000 0.000000 -0.000000 0.000000 0.000000 12.528835 0.000000 0.000000 0.711642 0.000000 0.000000 -0.000000 0.000000 0.000000 0.000000 -90.000000 0.000000 -2.309062 0.000000 0.000000 2.309062 0.000000 0.000000 -0.000000 0.000000 0.000000 -0.000000 90.000000 0.000000 -2.309062 0.000000 0.000000 2.309062 0.000000 0.000000 8.520406 0.000000 0.000000 1.905762 0.000000 -0.000000 -4.658285 0.000000 0.000000 -0.000000 0.000000 0.000000 8.520406 0.000000 0.000000 1.905762 0.000000 -0.000000 -4.658285 0.000000 0.000000 -0.000000 0.000000
-131.694141 57.412080 108.783557 176.670956 -34.134640 -0.506248 1.493922 23.655136 2.366802 0.129680 3.522145 0.348042 0.213216 5.687442 0.576310 1.040942 19.754983 2.139577 -0.914974 18.053250 -2.110842 -0.991580 -2.267570 -3.582475 5.476176 -0.025046 -0.463811 19.516977 -26.696739 -19.182220 28.777109 -62.197127 4.861052 9.859421 -12.437635 -28.666812 -9.081032 -2.819089 -6.691356 -5.036501 -26.589677 0.163333 24.451306 -23.914614 -41.584419 16.208438 6.928001 8.280688 7.443387 -41.889934 -5.321745 -12.016070 66.490676 -14.448134 9.305466 24.499622 9.539053 -0.166205 -15.324846 0.787144 -1.949900 -38.741787 -1.857909 21.679166 65.847698 20.193034 -17.578968 3.461134 -0.677574 0.250531 0.387607 0.108274
-131.692648 57.412614 108.784650 176.672115 -34.123197 -0.513948 1.496837 23.640918 2.372535 0.135596 3.511675 0.338172 0.210575 5.688754 0.583526 1.053022 19.734327 2.125332 -0.926187 17.985834 -2.021453 -1.040044 -2.393984 -3.414750 5.461956 -0.012225 -0.436353 19.519021 -26.683304 -19.179158 28.733188 -62.166985 4.898848 9.876567 -12.454665 -28.677829 -9.083871 -2.831002 -6.685330 -5.071047 -26.568981 0.193128 24.462987 -23.841059 -41.587771 16.191002 6.898302 8.283692 7.444665 -41.898378 -5.319556 -12.024961 66.484200 -14.448688 9.301959 24.500656 9.533283 -0.164574 -15.322625 0.789770 -1.963259 -38.755986 -1.840926 21.677690 65.852087 20.187971 -17.580320 3.464401 -0.677698 0.240875 0.383063 0.107129
-131.691934 57.413291 108.786007 176.669282 -34.109982 -0.513621 1.506857 23.620700 2.365407 0.134841 3.506446 0.335883 0.222748 5.661509 0.565650 1.058277 19.744113 2.137362 -0.934304 17.917307 -1.924443 -1.085510 -2.522385 -3.234016 5.447385 -0.014910 -0.407858 19.522071 -26.659756 -19.170223 28.697825 -62.138365 4.929478 9.884250 -12.464468 -28.687443 -9.080098 -2.843676 -6.681229 -5.103170 -26.550026 0.224736 24.457230 -23.771045 -41.593876 16.184316 6.862490 8.293029 7.454770 -41.903786 -5.336731 -12.002153 66.476319 -14.412717 9.311811 24.490501 9.538510 -0.177751 -15.311596 0.785470 -1.963448 -38.771095 -1.839146 21.672960 65.854533 20.190005 -17.579526 3.467125 -0.682603 0.241446 0.378430 0.106008
-131.690678 57.414787 108.786638 176.662808 -34.102977 -0.512573 1.519607 23.600055 2.349401 0.132625 3.511139 0.346784 0.223427 5.661120 0.567905 1.066060 19.727899 2.119835 -0.938733 17.845869 -1.820890 -1.126510 -2.655894 -3.042386 5.446031 -0.041233 -0.389815 19.502842 -26.616478 -19.139906 28.676525 -62.117264 4.948941 9.885632 -12.470206 -28.690771 -9.070709 -2.858985 -6.672510 -5.126942 -26.517648 0.244221 24.434044 -23.720531 -41.603820 16.191781 6.834464 8.311222 7.456741 -41.906634 -5.337077 -11.990392 66.469730 -14.398431 9.304144 24.489872 9.539400 -0.171607 -15.307739 0.779469 -1.960327 -38.776682 -1.836049 21.671482 65.853882 20.195923 -17.578912 3.464044 -0.689462 0.243970 0.378251 0.106664
-131.689197 57.416533 108.787217 176.654458 -34.097126 -0.509695 1.527796 23.592200 2.348454 0.132950 3.510269 0.346304 0.224929 5.655697 0.562841 1.071254 19.724085 2.115292 -0.938390 17.759101 -1.728045 -1.164505 -2.795272 -2.839876 5.448423 -0.053939 -0.388424 19.498223 -26.597568 -19.122433 28.641941 -62.090821 4.974050 9.894207 -12.474634 -28.701063 -9.036389 -2.925860 -6.706508 -5.169886 -26.466613 0.291116 24.399222 -23.655039 -41.603085 16.199682 6.810409 8.337486 7.460394 -41.909478 -5.339314 -11.989132 66.466606 -14.386591 9.287875 24.481723 9.521063 -0.161156 -15.297320 0.780989 -1.955266 -38.779605 -1.833736 21.670226 65.852018 20.198899 -17.571398 3.459959 -0.691182 0.238902 0.380048 0.105012
-131.688387 57.418534 108.787488 176.650101 -34.093511 -0.502484 1.535212 23.581990 2.333743 0.134726 3.506438 0.344316 0.228003 5.650006 0.559650 1.075228 19.727749 2.120915 -0.933076 17.668557 -1.631717 -1.197601 -2.943285 -2.626810 5.445517 -0.055062 -0.380023 19.504310 -26.583664 -19.115831 28.607938 -62.062747 4.996414 9.900354 -12.474051 -28.720634 -9.024356 -2.946277 -6.720207 -5.186297 -26.457112 0.316270 24.366657 -23.608333 -41.596814 16.203955 6.789228 8.345429 7.464697 -41.910564 -5.347157 -11.989331 66.464601 -14.383883 9.281575 24.479168 9.512231 -0.157091 -15.294399 0.782702 -1.947663 -38.783175 -1.841815 21.677182 65.851949 20.209910 -17.563077 3.462956 -0.689466 0.224028 0.374374 0.100972
